# xmcd
#
# Track frame offsets: 
#        150
#        15970
#        34625
#        70984
#        85697
#        98902
#        110055
#        140845
#        162057
#        201021
#        220763
#        256095
#
# Disc length: 3911 seconds
#
# Revision: 1
# Processed by: cddbd v1.5.2PL0 Copyright (c) Steve Scherf et al.
# Submitted via: ExactAudioCopy v1.0b3
#
DISCID=9a0f450c
DTITLE=Various Artist - 2007 GZ AV Fair CD1
DYEAR=2007
DGENRE=Other
TTITLE0=Eiji Oue - Fanfare for a common man 
TTITLE1=Don Ross - Klimbim
TTITLE2=Josef Strauss - Flattergeister, waltz, Op. 62
TTITLE3=Mozart - Alla Turca
TTITLE4=Joseph Haydn - Variations on a theme from the "Surprise" Symph
TTITLE4=ony
TTITLE5=Marcucci - Taquito militar
TTITLE6=Detroit Symphony Orchestra - Fête Polonaise
TTITLE7=Akira Eguchi - Slavonic Dance No. 1 for violin and piano in G mi
TTITLE7=nor 
TTITLE8=Mstislav Rostropovich - Variations on a Rococo Theme, Op. 33
TTITLE9=寧峰 霍普 - 如歌
TTITLE10=于紅梅 - 閒居吟
TTITLE11=華夏民族樂團 - 太陽
EXTD=
EXTT0=
EXTT1=
EXTT2=
EXTT3=
EXTT4=
EXTT5=
EXTT6=
EXTT7=
EXTT8=
EXTT9=
EXTT10=
EXTT11=
PLAYORDER=
